<svg data-v-0dd9719b="" version="1.0" xmlns="http://www.w3.org/2000/svg" xmlns:xlink="http://www.w3.org/1999/xlink" width="100%" height="100%" viewBox="0 0 340.000000 250.000000" preserveAspectRatio="xMidYMid meet" color-interpolation-filters="sRGB" style="margin: auto;"> <rect data-v-0dd9719b="" x="0" y="0" width="100%" height="100%" fill="#fff" fill-opacity="1" class="background"></rect> <rect data-v-0dd9719b="" x="0" y="0" width="100%" height="100%" fill="url(#watermark)" fill-opacity="1" class="watermarklayer"></rect> <g data-v-0dd9719b="" fill="#3e3a39" class="icon-text-wrapper icon-svg-group iconsvg" transform="translate(60,93.5097599029541)"><g class="iconsvg-imagesvg" transform="translate(0,0)"><g><rect fill="#3e3a39" fill-opacity="0" stroke-width="2" x="0" y="0" width="63" height="62.98047605242375" class="image-rect"></rect> <svg x="0" y="0" width="63" height="62.98047605242375" filtersec="colorsb432201884" class="image-svg-svg primary" style="overflow: visible;"><svg xmlns="http://www.w3.org/2000/svg" viewBox="0 0 655.9200439453125 655.719970703125"><path fill="#3e3a39" d="M341.54 128.33h186.03v185.96h-80.81V209.11H341.54v-80.78zM314.39 527.38H128.37V341.43h80.82V446.6h105.2v80.78z"></path><path d="M129.08 313.44C136.16 215.62 215.7 136.1 313.55 129v81c-53.47 6.68-96.79 50-103.53 103.44zm397.89 28.82c-7.16 98-86.47 177.35-184.54 184.49v-81c53.65-6.72 96.79-49.85 103.53-103.5z" fill="#009fe8"></path><path d="M279.67 279.58a68.29 68.29 0 1 1 0 96.55 68.23 68.23 0 0 1 0-96.55z" fill="#3e3a39" fill-rule="evenodd"></path><path d="M95.97 95.92A326.72 326.72 0 0 1 313.55 0v81.62A246.35 246.35 0 0 0 81.66 313.44H0A326.59 326.59 0 0 1 96 95.92zm559.95 246.34a327.89 327.89 0 0 1-313.54 313.46v-81.44a247.09 247.09 0 0 0 232.09-232z" fill="#87d0f4" fill-rule="evenodd"></path></svg></svg> <!----></g></g> <g transform="translate(70,5.923990249633789)"><g data-gra="path-name" fill-rule="" class="tp-name iconsvg-namesvg" transform="translate(0,0)"><g transform="scale(1)"><g><path d="M20.74 0.48L28.2 0.48 31.39-3.56Q34.96-0.85 37.11 0.96L37.11 0.96Q36.96 1.56 36 1.56L36 1.56 1.26 1.56 0.96 0.48 14.66 0.48 14.66-31.88 22.15-31.21Q22.04-30.28 20.74-30.1L20.74-30.1 20.74-17.22 25.68-17.22 28.8-21.23Q32.32-18.59 34.4-16.77L34.4-16.77Q34.21-16.14 33.29-16.14L33.29-16.14 20.74-16.14 20.74 0.48ZM41.15-32.06L41.15-32.06 41.45-32.25Q46.79-31.51 48.09-28.83L48.09-28.83Q48.91-27.2 47.8-25.87L47.8-25.87Q46.72-24.57 44.98-25.09L44.98-25.09Q44.35-25.27 43.75-25.72L43.75-25.72Q43.38-28.65 41.15-32.06ZM38.71-23.34L38.71-23.34 39.04-23.53Q44.16-22.79 45.31-20.22L45.31-20.22Q46.02-18.59 44.87-17.37L44.87-17.37Q43.71-16.11 42.01-16.74L42.01-16.74Q41.45-16.92 40.93-17.33L40.93-17.33Q40.75-20.52 38.71-23.34ZM49.24-26.31L49.24-26.31 49.84-26.16Q47.05-15.88 46.09-10.65L46.09-10.65Q45.61-8.2 45.64-6.9L45.64-6.9Q45.68-6.01 46.54-3.93 47.39-1.86 47.31 0.11L47.31 0.11Q47.28 1.63 46.29 2.58 45.31 3.53 43.79 3.53L43.79 3.53Q41.9 3.53 41.41 1.52L41.41 1.52Q42.01-1.52 41.93-4.04 41.86-6.57 41.15-7.01L41.15-7.01Q40.38-7.57 39.15-7.68L39.15-7.68 39.15-8.35 40.86-8.35Q41.19-8.35 41.34-8.39 41.49-8.42 41.67-8.59 41.86-8.76 42.04-9.17L42.04-9.17Q42.75-10.39 46.87-20.52L46.87-20.52Q48.35-24.08 49.24-26.31ZM58.04-19.85L58.04-19.85 58.37-20.04Q62.86-19.19 63.68-16.88L63.68-16.88Q64.24-15.4 63.09-14.44L63.09-14.44Q61.86-13.4 60.3-14.29L60.3-14.29Q60.08-14.44 59.82-14.62L59.82-14.62Q59.67-16.88 58.04-19.85ZM57.19-11.39L57.19-11.39 57.48-11.58Q62.42-11.1 63.57-8.68L63.57-8.68Q64.27-7.2 63.2-6.09L63.2-6.09Q62.08-4.9 60.45-5.6L60.45-5.6Q60.12-5.75 59.78-5.97L59.78-5.97Q59.34-8.46 57.19-11.39ZM54.85-4.64L54.85-4.64 65.02-4.64Q65.46-6.83 65.76-12.06L65.76-12.06 55.89-12.06Q55.11-6.35 54.85-4.64ZM66.02-20.37L66.02-20.37 56.93-20.37Q56.81-19.41 56.5-16.94 56.18-14.47 56.04-13.1L56.04-13.1 65.79-13.1Q65.94-16.22 66.02-20.37ZM70.14-5.68L70.14-5.68 71.66-8.09Q74.14-5.71 75.52-4.19L75.52-4.19Q75.33-3.56 74.48-3.56L74.48-3.56 69.88-3.56Q69.25 0.19 67.84 1.56L67.84 1.56Q65.94 3.41 62.38 3.41L62.38 3.41Q62.38 0.89 61.64 0.04L61.64 0.04Q60.67-1.08 58.08-1.67L58.08-1.67 58.08-2.12Q61.19-1.89 62.83-1.89L62.83-1.89Q63.68-1.89 64.11-2.28 64.53-2.67 64.76-3.56L64.76-3.56 54.7-3.56Q54.63-2.97 54.44-1.97 54.25-0.96 54.22-0.74L54.22-0.74Q52.55 0.15 49.21-0.52L49.21-0.52Q50.17-5.49 51.1-12.06L51.1-12.06 48.69-12.06 48.39-13.1 51.25-13.1Q52.06-18.96 52.18-19.89L52.18-19.89Q50.69-18.55 48.58-17.18L48.58-17.18 48.13-17.48Q49.99-20.22 51.6-24.31 53.21-28.39 54.07-32.54L54.07-32.54 60.75-30.28Q60.49-29.5 59.23-29.54L59.23-29.54Q58.45-27.91 57.45-26.27L57.45-26.27 67.69-26.27 70.21-29.76Q73.07-27.39 74.74-25.79L74.74-25.79Q74.59-25.2 73.7-25.2L73.7-25.2 56.78-25.2Q56.07-24.05 54.92-22.71L54.92-22.71 57.85-21.45 65.57-21.45 68.17-24.01 72.51-20.26Q71.99-19.67 70.84-19.52L70.84-19.52Q70.8-18.33 70.75-16.35 70.69-14.36 70.69-13.66L70.69-13.66 72.21-16.18Q74.37-14.06 75.52-12.65L75.52-12.65Q75.41-12.06 74.52-12.06L74.52-12.06 70.62-12.06Q70.47-8.94 70.14-5.68ZM81.9-6.53L81.9-1.22 89.77-1.22 89.77-6.53 81.9-6.53ZM82.83-20.11L82.83-21.49 81.9-21.49 81.9-11.8Q82.09-12.32 82.23-12.9 82.38-13.47 82.48-13.93 82.57-14.4 82.64-15.08 82.72-15.77 82.75-16.11 82.79-16.44 82.81-17.22 82.83-18 82.83-18.2 82.83-18.41 82.83-19.22 82.83-20.04 82.83-20.11L82.83-20.11ZM86.17-22.53L86.17-28.24 85.24-28.24 85.24-22.53 86.17-22.53ZM88.88-14.66L88.88-14.66 89.77-14.66 89.77-21.49 88.62-21.49 88.62-15.18Q88.62-14.66 88.88-14.66ZM86.17-21.49L85.24-21.49 85.24-20.08Q85.24-13.4 81.97-10.43L81.97-10.43 81.9-10.5 81.9-7.61 89.77-7.61 89.77-11.8Q89.51-11.76 88.91-11.76L88.91-11.76 88.1-11.76Q86.91-11.76 86.54-12.25 86.17-12.73 86.17-13.99L86.17-13.99 86.17-21.49ZM89.4-22.53L91.4-24.71 95.33-21.6Q94.93-21.08 93.96-20.86L93.96-20.86 93.96 1.78Q93.89 2.04 92.66 2.54 91.44 3.04 90.44 3.04L90.44 3.04 89.77 3.04 89.77-0.15 81.9-0.15 81.9 2.08Q81.9 2.45 80.86 2.97 79.82 3.49 78.63 3.49L78.63 3.49 77.97 3.49 77.97-24.27 82.01-22.56 82.01-28.24 77.34-28.24 77.04-29.32 88.84-29.32 91.25-32.51Q94-30.32 95.59-28.83L95.59-28.83Q95.48-28.24 94.59-28.24L94.59-28.24 89.4-28.24 89.4-22.53ZM101.09-10.43L101.09-0.82 106.58-0.82 106.58-10.43 101.09-10.43ZM101.49-11.47L106.43-11.47 108.77-14.06 113-10.8Q112.59-10.24 111.51-10.06L111.51-10.06 111.51 2.19Q111.51 2.34 111.07 2.58 110.62 2.82 109.62 3.04 108.62 3.27 107.47 3.27L107.47 3.27 106.58 3.27 106.58 0.26 101.09 0.26 101.09 2.41Q101.09 2.6 100.64 2.84 100.2 3.08 99.25 3.28 98.3 3.49 97.19 3.49L97.19 3.49 96.37 3.49 96.37-13.4 101.49-11.47ZM99.45-24.68L99.45-24.68 101.38-24.68 101.38-28.17Q101.05-27.94 100.34-27.94L100.34-27.94Q100.01-26.5 99.45-24.68ZM106.28-16.74L107.02-16.74 109.36-19.96Q112.03-17.74 113.59-16.25L113.59-16.25Q113.44-15.66 112.52-15.66L112.52-15.66 94.96-15.66 94.67-16.74 101.38-16.74 101.38-23.6 99.04-23.6Q97.63-19.93 95.3-17.66L95.3-17.66 94.78-17.92Q96.08-23.45 95.82-30.5L95.82-30.5 101.38-28.87 101.38-32.06 107.36-31.54Q107.28-30.84 106.28-30.65L106.28-30.65 106.28-24.68 106.65-24.68 108.95-27.83Q111.55-25.64 113.07-24.2L113.07-24.2Q112.92-23.6 112.03-23.6L112.03-23.6 106.28-23.6 106.28-16.74ZM140.5-10.32L140.5-13.84 129.66-13.84 129.66-10.32 140.5-10.32ZM129.66-4.34L129.66-0.33 140.5-0.33 140.5-4.34 129.66-4.34ZM140.5-9.24L129.66-9.24 129.66-5.38 140.5-5.38 140.5-9.24ZM130.55-18.7L143.13-18.7 145.91-22.12Q149.07-19.85 150.96-18.26L150.96-18.26Q150.85-17.63 149.88-17.63L149.88-17.63 129.96-17.63Q129.4-16.74 128.51-15.51L128.51-15.51 130.18-14.88 140.09-14.88 142.5-17.48 147.32-13.8Q146.84-13.25 145.99-13.06L145.99-13.06 145.99 2.15Q145.95 2.3 145.21 2.62 144.47 2.93 143.37 3.21 142.28 3.49 141.42 3.49L141.42 3.49 140.5 3.49 140.5 0.71 129.66 0.71 129.66 2.08Q129.66 2.3 129.16 2.65 128.66 3.01 127.58 3.32 126.51 3.64 125.24 3.64L125.24 3.64 124.21 3.64 124.21-10.84Q120.23-7.31 115.3-5.05L115.3-5.05 114.96-5.42Q121.05-9.95 124.76-17.63L124.76-17.63 115.82-17.63 115.52-18.7 125.24-18.7Q126.13-20.82 126.62-22.23L126.62-22.23 118.45-22.23 118.16-23.3 126.95-23.3Q127.47-24.97 127.84-26.57L127.84-26.57Q122.09-26.38 117.3-26.5L117.3-26.5 117.23-27.05Q123.83-27.87 131.31-29.45 138.79-31.02 143.17-32.51L143.17-32.51 147.81-27.76Q147.06-27.16 145.13-27.91L145.13-27.91Q139.49-27.16 133.85-26.83L133.85-26.83Q133.33-24.97 132.7-23.3L132.7-23.3 140.98-23.3 143.65-26.57Q146.69-24.38 148.55-22.82L148.55-22.82Q148.4-22.23 147.47-22.23L147.47-22.23 132.29-22.23Q131.81-21 130.55-18.7L130.55-18.7Z" transform="translate(-0.9600000381469727, 32.540000915527344)"></path></g> <!----> <!----> <!----> <!----> <!----> <!----> <!----></g></g> <g data-gra="path-slogan" fill-rule="" class="tp-slogan iconsvg-slogansvg" fill="#3E3A39" transform="translate(5,43.18000030517578)"><rect x="0" height="1" y="3.9750003814697266" width="7.7641754150390625"></rect> <rect height="1" y="3.9750003814697266" width="7.7641754150390625" x="132.23582458496094"></rect> <g transform="translate(10.764175415039062,0)"><g transform="scale(1)"><path d="M7.17-6.09L7.17-6.09L6.09-6.09Q6-7.73 3.94-7.83L3.94-7.83Q2.02-7.78 2.02-6.33L2.02-6.33Q2.02-5.39 3.05-5.25L3.05-5.25L5.48-4.69Q7.41-4.22 7.41-2.34L7.41-2.34Q7.36 0.05 4.03 0.14L4.03 0.14Q2.20 0.14 1.45-0.61L1.45-0.61Q0.52-1.31 0.56-2.77L0.56-2.77L1.69-2.77Q1.73-0.80 4.03-0.75L4.03-0.75Q6.28-0.80 6.33-2.20L6.33-2.20Q6.52-3.38 4.45-3.75L4.45-3.75L2.67-4.13Q0.84-4.64 0.84-6.19L0.84-6.19Q0.98-8.72 3.84-8.81L3.84-8.81Q7.08-8.81 7.17-6.09ZM11.03-5.06L15.53-5.06L15.53-8.58L16.70-8.58L16.70 0L15.53 0L15.53-3.98L11.03-3.98L11.03 0L9.86 0L9.86-8.58L11.03-8.58L11.03-5.06ZM25.16 0L24.31-2.48L20.84-2.48L19.95 0L18.78 0L22.02-8.58L23.33-8.58L26.42 0L25.16 0ZM22.58-7.31L21.22-3.52L23.89-3.52L22.63-7.31L22.58-7.31ZM29.86-8.58L34.17-1.64L34.17-8.58L35.30-8.58L35.30 0L33.98 0L29.63-6.94L29.58-6.94L29.58 0L28.45 0L28.45-8.58L29.86-8.58ZM44.50-3.61L41.88-3.61L41.88-4.59L45.63-4.59L45.63 0L44.88 0L44.59-1.08Q43.61 0.09 41.78 0.14L41.78 0.14Q40.05 0.14 39.11-0.75L39.11-0.75Q37.70-2.06 37.75-4.36L37.75-4.36Q38.08-8.63 41.83-8.81L41.83-8.81Q45.02-8.63 45.48-6L45.48-6L44.36-6Q43.89-7.78 41.78-7.83L41.78-7.83Q39.11-7.64 38.97-4.31L38.97-4.31Q38.97-0.75 41.83-0.75L41.83-0.75Q42.86-0.75 43.61-1.31L43.61-1.31Q44.55-2.06 44.50-3.61L44.50-3.61ZM49.58-5.06L54.08-5.06L54.08-8.58L55.25-8.58L55.25 0L54.08 0L54.08-3.98L49.58-3.98L49.58 0L48.41 0L48.41-8.58L49.58-8.58L49.58-5.06ZM63.70 0L62.86-2.48L59.39-2.48L58.50 0L57.33 0L60.56-8.58L61.88-8.58L64.97 0L63.70 0ZM61.13-7.31L59.77-3.52L62.44-3.52L61.17-7.31L61.13-7.31ZM67.19-8.58L68.36-8.58L68.36 0L67.19 0L67.19-8.58ZM78.19-4.31L76.83-3.05L76.83 0L75.66 0L75.66-8.58L76.83-8.58L76.83-4.41L81-8.58L82.64-8.58L79.03-5.11L82.73 0L81.19 0L78.19-4.31ZM90.30-3.19L90.30-8.58L91.47-8.58L91.47-3.05Q91.33 0.05 87.95 0.14L87.95 0.14Q84.81 0.05 84.67-2.86L84.67-2.86L84.67-8.58L85.84-8.58L85.84-3.19Q85.89-0.84 88-0.80L88-0.80Q90.30-0.84 90.30-3.19L90.30-3.19ZM96.78-4.31L95.42-3.05L95.42 0L94.25 0L94.25-8.58L95.42-8.58L95.42-4.41L99.59-8.58L101.23-8.58L97.63-5.11L101.33 0L99.78 0L96.78-4.31ZM108.89 0L108.05-2.48L104.58-2.48L103.69 0L102.52 0L105.75-8.58L107.06-8.58L110.16 0L108.89 0ZM106.31-7.31L104.95-3.52L107.63-3.52L106.36-7.31L106.31-7.31ZM113.59-8.58L117.91-1.64L117.91-8.58L119.03-8.58L119.03 0L117.72 0L113.36-6.94L113.31-6.94L113.31 0L112.19 0L112.19-8.58L113.59-8.58Z" transform="translate(-0.5602678571428572, 8.8125)"></path></g></g></g></g></g><defs v-gra="od"></defs></svg>